<svg xmlns="http://www.w3.org/2000/svg" width="1200" height="650" viewBox="0 0 1200 650" role="img"><style>.bg{fill:#f5f7fb}.card{fill:#fff;stroke:#c9d8f2;stroke-width:2}.soft{fill:#eef4ff;stroke:#c9d8f2;stroke-width:1.5}.green{fill:#dcfce7}.greenText{fill:#166534}.blue{fill:#dbeafe}.blueText{fill:#1d4ed8}.red{fill:#fee2e2}.redText{fill:#991b1b}.navy{fill:#0f172a}.muted{fill:#64748b}text{font-family:-apple-system,BlinkMacSystemFont,"Segoe UI",Arial,sans-serif}.h1{font-size:34px;font-weight:800}.h2{font-size:22px;font-weight:750}.body{font-size:17px}.small{font-size:14px}.bold{font-weight:700}.caps{font-size:13px;font-weight:800;letter-spacing:2px}</style><rect class="bg" width="100%" height="100%"/><text x="45" y="62" class="caps blueText">SAFE CANCELLATION AND RETRY</text><text x="45" y="103" class="h1 navy">A cancelled workflow can resume without duplicated actions</text><rect x="45" y="140" width="535" height="455" rx="26" class="card"/><text x="77" y="182" class="h2 navy">Attempt 1</text><rect x="375" y="155" width="170" height="30" rx="15" class="red"/><text x="460" y="176" class="small bold redText" text-anchor="middle">Cancelled</text><rect x="620" y="140" width="535" height="455" rx="26" class="card"/><text x="652" y="182" class="h2 navy">Attempt 2</text><rect x="950" y="155" width="170" height="30" rx="15" class="blue"/><text x="1035" y="176" class="small bold blueText" text-anchor="middle">Awaiting Approval</text><g fill="#dcfce7" stroke="#4ade80"><circle cx="93" cy="230" r="17"/><circle cx="93" cy="278" r="17"/><circle cx="93" cy="326" r="17"/><circle cx="93" cy="374" r="17"/><circle cx="93" cy="422" r="17"/><circle cx="93" cy="470" r="17"/><circle cx="93" cy="518" r="17"/><circle cx="668" cy="230" r="17"/><circle cx="668" cy="278" r="17"/><circle cx="668" cy="326" r="17"/><circle cx="668" cy="374" r="17"/><circle cx="668" cy="422" r="17"/><circle cx="668" cy="470" r="17"/><circle cx="668" cy="518" r="17"/></g><g class="small bold greenText" text-anchor="middle"><text x="93" y="236">1</text><text x="93" y="284">2</text><text x="93" y="332">3</text><text x="93" y="380">4</text><text x="93" y="428">5</text><text x="93" y="476">6</text><text x="93" y="524">7</text><text x="668" y="236">1</text><text x="668" y="284">2</text><text x="668" y="332">3</text><text x="668" y="380">4</text><text x="668" y="428">5</text><text x="668" y="476">6</text><text x="668" y="524">7</text></g><g class="body bold navy"><text x="123" y="235">Validate goal</text><text x="123" y="283">Search jobs</text><text x="123" y="331">Select candidates</text><text x="123" y="379">Run Smart Fit</text><text x="123" y="427">Build base plan</text><text x="123" y="475">Optional AI organization</text><text x="123" y="523">Prepare review</text><text x="698" y="235">Validate goal</text><text x="698" y="283">Search jobs</text><text x="698" y="331">Select candidates</text><text x="698" y="379">Run Smart Fit</text><text x="698" y="427">Build base plan</text><text x="698" y="475">Optional AI organization</text><text x="698" y="523">Prepare review</text></g><g><rect x="420" y="214" width="120" height="30" rx="15" class="green"/><rect x="420" y="262" width="120" height="30" rx="15" class="green"/><rect x="435" y="310" width="105" height="28" rx="14" class="soft"/><rect x="435" y="358" width="105" height="28" rx="14" class="soft"/><rect x="435" y="406" width="105" height="28" rx="14" class="soft"/><rect x="435" y="454" width="105" height="28" rx="14" class="soft"/><rect x="435" y="502" width="105" height="28" rx="14" class="soft"/><rect x="995" y="214" width="120" height="30" rx="15" class="green"/><rect x="995" y="262" width="120" height="30" rx="15" class="green"/><rect x="995" y="310" width="120" height="30" rx="15" class="green"/><rect x="995" y="358" width="120" height="30" rx="15" class="blue"/><rect x="995" y="406" width="120" height="30" rx="15" class="green"/><rect x="995" y="454" width="120" height="30" rx="15" class="green"/><rect x="995" y="502" width="120" height="30" rx="15" class="green"/></g><g class="small bold" text-anchor="middle"><text x="480" y="235" class="greenText">Completed</text><text x="480" y="283" class="greenText">Completed</text><text x="487" y="330" class="muted">Pending</text><text x="487" y="378" class="muted">Pending</text><text x="487" y="426" class="muted">Pending</text><text x="487" y="474" class="muted">Pending</text><text x="487" y="522" class="muted">Pending</text><text x="1055" y="235" class="greenText">Completed</text><text x="1055" y="283" class="greenText">Completed</text><text x="1055" y="331" class="greenText">Completed</text><text x="1055" y="379" class="blueText">Skipped</text><text x="1055" y="427" class="greenText">Completed</text><text x="1055" y="475" class="greenText">Completed</text><text x="1055" y="523" class="greenText">Completed</text></g><text x="77" y="570" class="small muted">Attempt 1 · audit history preserved</text><text x="652" y="570" class="small muted">Attempt 2 · audit history preserved</text></svg>